<svg width="32" height="50" viewBox="0 0 32 50" fill="none" xmlns="http://www.w3.org/2000/svg">
<path d="M13.248 3.23753C14.2021 2.05472 15.3516 1.05439 16.4405 0C18.5373 2.12906 20.5701 4.46089 21.6118 7.31654C22.3332 9.15835 22.5726 11.1421 22.667 13.1089C25.465 11.6051 28.644 11.0745 31.7926 11.2063C31.7825 13.9741 32.0252 16.8264 31.0813 19.486C29.4294 24.7782 24.7672 28.9282 19.3531 30.0164C20.324 33.5108 23.1187 36.407 26.5539 37.5323C28.2091 38.1474 29.9924 38.2049 31.7353 38.188C31.9106 39.5397 31.9308 40.9084 31.8297 42.2703C25.5392 42.9665 19.1138 39.4248 16.3326 33.7304C14.4448 37.2823 11.3029 40.1886 7.47328 41.4795C5.3461 42.294 3.05036 42.3717 0.805191 42.3075C0.757995 40.9726 0.606295 39.6107 0.879356 38.2927C2.6728 38.0764 4.54041 38.188 6.2462 37.4783C9.63418 36.309 12.2266 33.4128 13.3391 30.0367C8.36664 29.0296 3.98417 25.5352 2.02217 20.8276C0.653496 17.8132 0.73103 14.4472 0.78834 11.2097C2.49413 11.2367 4.22689 11.1827 5.89897 11.5814C7.33507 11.9194 8.6869 12.5277 10.0421 13.1056C9.88365 9.56389 11.0871 6.02897 13.248 3.23753ZM14.3942 9.83762C13.4941 13.2002 14.3436 16.8433 16.3528 19.6414C17.5058 17.7895 18.4868 15.7517 18.5576 13.528C18.8475 10.8379 17.8496 8.25265 16.518 5.97151C15.2033 6.813 14.8122 8.43177 14.3942 9.83762ZM4.8573 15.478C5.10002 17.5529 5.71019 19.6178 6.97099 21.3075C8.56553 23.636 11.0804 25.1838 13.7672 25.9306C13.5312 20.9425 9.67801 16.5695 4.8573 15.478ZM23.2097 17.6476C20.651 19.6178 19.0868 22.7201 18.8306 25.9306C21.2578 25.2547 23.5637 23.9672 25.1549 21.9733C26.7123 20.1484 27.518 17.803 27.7641 15.4374C26.1662 15.9849 24.5379 16.5661 23.2097 17.6476Z" fill="#C7A27B"/>
<path d="M0.784921 30.6923C2.08955 30.6214 3.38743 30.422 4.63138 30.0131C5.727 30.7059 6.80913 31.4122 7.88115 32.1455C6.13491 34.1766 3.35709 34.7578 0.795034 34.5111C0.757952 33.2371 0.757952 31.9664 0.784921 30.6923Z" fill="#C7A27B"/>
<path d="M24.9829 32.4395C25.3537 31.1519 27.0966 30.7869 28.1147 30.0096C29.2777 30.4591 30.5183 30.6348 31.7589 30.6686C31.8701 31.9326 31.8904 33.2032 31.8364 34.4739C29.4092 34.7375 26.7426 34.2644 24.9829 32.4395Z" fill="#C7A27B"/>
<path d="M6.19557 45.6362C10.0016 44.6799 13.5716 42.7874 16.3191 39.9587C18.5204 42.1588 21.1566 43.9837 24.1435 44.9097C24.8784 45.1597 25.6571 45.3186 26.3381 45.7072C26.5538 46.89 26.8033 48.2925 26.1695 49.3841C24.6525 49.6004 23.1759 48.8602 21.7634 48.3837C19.7981 47.6335 17.9945 46.525 16.2651 45.3389C13.4266 47.4003 10.1398 49.1441 6.60347 49.4652C5.71012 48.4412 6.27647 46.8833 6.19557 45.6362Z" fill="#C7A27B"/>
</svg>
